<?xml version="1.0" encoding="UTF-8" standalone="no"?>
<!-- Created with Inkscape (http://www.inkscape.org/) -->

<svg
   version="1.1"
   id="svg1"
   width="1643.7526"
   height="649.1405"
   viewBox="0 0 1643.7525 649.14049"
   sodipodi:docname="wheat logo.svg"
   inkscape:version="1.3.2 (091e20e, 2023-11-25)"
   xmlns:inkscape="http://www.inkscape.org/namespaces/inkscape"
   xmlns:sodipodi="http://sodipodi.sourceforge.net/DTD/sodipodi-0.dtd"
   xmlns="http://www.w3.org/2000/svg"
   xmlns:svg="http://www.w3.org/2000/svg">
  <defs
     id="defs1" />
  <sodipodi:namedview
     id="namedview1"
     pagecolor="#505050"
     bordercolor="#eeeeee"
     borderopacity="1"
     inkscape:showpageshadow="0"
     inkscape:pageopacity="0"
     inkscape:pagecheckerboard="0"
     inkscape:deskcolor="#505050"
     showgrid="false"
     inkscape:zoom="0.472"
     inkscape:cx="629.23729"
     inkscape:cy="449.15254"
     inkscape:window-width="1920"
     inkscape:window-height="1027"
     inkscape:window-x="0"
     inkscape:window-y="25"
     inkscape:window-maximized="1"
     inkscape:current-layer="g1" />
  <g
     inkscape:groupmode="layer"
     inkscape:label="Image"
     id="g1"
     transform="translate(-2211.1915,-621.61095)">
    <path
       style="fill:#2d472d;stroke:#2d472d;stroke-opacity:1;fill-opacity:0.93548387"
       d="m 2211.1915,1199.8787 c 53.4795,-27.1729 106.1855,-51.0351 158.7472,-71.8714 25.4907,-10.105 59.633,-22.4968 66.2738,-24.0538 6.3034,-1.4779 7.9442,-3.8696 6.7211,-9.7975 -4.2401,-20.5502 -2.4021,-49.454 4.6648,-73.3588 6.1296,-20.7329 18.5452,-44.40015 34.1479,-65.09343 5.6602,-7.50692 7.7229,-9.46383 24.5933,-23.33187 10.128,-8.32563 29.5856,-25.39144 43.2388,-37.92396 67.5735,-62.02669 108.0015,-96.4109 130.6374,-111.10756 22.8467,-14.83344 81.6861,-51.6129 101.1873,-63.25031 15.5549,-9.28243 39.1974,-21.24448 41.6947,-21.09573 3.8482,0.22925 1.4232,2.76898 -7.8251,8.1952 -7.8862,4.62724 -50.3233,30.03149 -64.5077,38.61645 -8.1638,4.94106 -34.1901,22.36505 -47.226,31.61665 -6.5249,4.63074 -22.3733,17.24688 -35.2183,28.03579 -19.7042,16.54939 -28.5022,24.66964 -56.2802,51.9409 -18.109,17.77861 -37.3665,36.66675 -42.795,41.97368 -5.4284,5.3069 -11.2205,11.38461 -12.8718,13.50603 -4.0649,5.22221 -5.9949,12.34689 -5.524,20.3902 0.2158,3.68115 0.08,11.36109 -0.3022,17.0663 -0.9831,14.68979 -0.9701,18.03997 0.081,20.49238 1.6204,3.78279 3.7948,0.37255 12.8471,-20.15 12.4842,-28.3034 21.9468,-46.47941 28.5701,-54.87875 14.8592,-18.8438 50.9293,-42.88206 98.8316,-65.86457 23.8753,-11.45486 42.5481,-21.42947 72.9701,-38.97931 49.6354,-28.63381 85.5954,-46.87698 141.175,-71.62064 18.2353,-8.11821 37.8603,-17.24119 43.6112,-20.27331 11.4014,-6.01129 15.9375,-7.67318 16.191,-5.93199 0.1818,1.25189 -5.8996,5.54249 -17.4976,12.34437 -4.0903,2.39868 -13.3439,8.11148 -20.5639,12.69513 -16.7146,10.61144 -32.8198,19.99225 -58.0273,33.79942 -36.1856,19.8203 -88.3566,47.35412 -102.719,54.21118 -15.1827,7.24878 -24.4757,12.54053 -43.3892,24.70746 -14.1488,9.10189 -17.663,12.683 -21.9813,22.39957 -2.5358,5.7055 -3.3987,11.81895 -6.1855,43.81713 -2.0076,23.0524 -2.7382,37.23014 -1.9221,37.30157 0.8161,0.0714 3.4583,-2.92002 6.9505,-7.87129 23.2019,-32.89014 30.4962,-41.18272 52.4113,-59.5842 19.2695,-16.18209 20.4885,-16.93694 47.1494,-29.26324 20.0207,-9.25636 39.4353,-21.29619 71.7559,-44.49883 33.108,-23.76819 48.6065,-34.05333 85.9455,-57.03568 52.6887,-32.43017 63.1183,-37.84564 96.0861,-49.89153 53.6053,-19.58647 100.6832,-32.19769 104.264,-27.9302 1.2409,1.47839 -2.2426,2.64648 -36.1664,12.12657 -25.4777,7.1199 -62.8992,21.66622 -91.8655,35.70976 -37.3808,18.12304 -89.1445,49.6242 -133.2273,81.07659 -11.4522,8.1709 -22.268,15.8211 -24.0348,17.00043 -5.189,3.46341 -6.315,6.56518 -5.7669,15.88618 0.2784,4.7325 -0.1628,13.66063 -0.9802,19.84018 -0.8242,6.22995 -0.9551,11.5302 -0.294,11.89669 1.8473,1.02429 5.6258,-0.61012 19.0066,-8.2215 17.533,-9.97331 55.8326,-29.71553 69.0194,-35.57732 12.5141,-5.56281 25.4691,-9.72369 43.9686,-14.12215 23.9143,-5.68578 45.177,-16.31771 117.246,-58.62643 34.64,-20.33579 36.3419,-21.25205 37.3155,-20.0916 0.7732,0.92095 -7.151,7.52061 -11.9101,9.91948 -2.0185,1.01741 -10.0122,6.54249 -17.7637,12.27824 -7.7518,5.7357 -22.0393,15.66167 -31.7498,22.05768 -49.671,32.71667 -57.1029,38.40876 -63.9526,48.98067 -5.6053,8.65146 -7.7764,13.87791 -13.4111,32.28393 -2.5911,8.46344 -6.0994,18.28379 -7.7966,21.8231 -3.1142,6.49449 -3.9007,10.74384 -2.0195,10.90775 0.5627,0.0489 10.4717,-8.01846 22.0204,-17.92774 44.6879,-38.34401 60.5761,-46.60537 85.8816,-44.65618 6.2732,0.48316 13.4548,0.31542 15.9594,-0.37296 5.3063,-1.45825 10.9252,-5.52575 66.3558,-48.03427 58.8664,-45.14328 58.9409,-45.1862 193.9837,-111.85628 16.4993,-8.14561 35.8108,-17.68443 42.9149,-21.19736 14.4625,-7.15205 18.2244,-8.61764 19.1838,-7.47427 0.9523,1.13488 -0.796,2.33699 -8.4956,5.84133 -10.1313,4.61117 -70.3581,37.89591 -97.4217,53.84067 -48.5751,28.61858 -89.28,54.89187 -135.0624,87.17686 -13.3062,9.38345 -27.8633,19.49692 -32.3485,22.47413 -5.8575,3.88805 -8.3957,6.01321 -9.0087,7.54356 -0.4698,1.17161 -0.7232,2.28606 -0.5632,2.47659 0.1597,0.19055 2.5136,0.0207 5.2312,-0.37756 9.7952,-1.43539 11.6057,0.28949 9.7643,9.30323 -0.738,3.61262 -2.1305,12.90824 -3.0943,20.65691 -0.964,7.7486 -2.7453,18.57703 -3.9589,24.06325 -1.213,5.48612 -1.8363,10.41502 -1.3849,10.95284 0.6416,0.76482 4.7558,-2.30993 18.8539,-14.09007 18.8975,-15.79035 18.939,-15.81728 41.448,-27.13665 12.5291,-6.30032 42.4401,-19.6209 74.4138,-33.13942 43.7241,-18.48632 82.7209,-36.29467 135.2134,-61.74708 32.765,-15.88688 51.2544,-23.89164 80.5358,-34.86761 21.4278,-8.03199 28.0002,-10.07209 26.0198,-8.07654 -3.4437,3.46944 -8.3971,6.4005 -16.1376,9.54899 -17.7506,7.21961 -54.644,24.98627 -80.4212,38.72773 -16.8745,8.99567 -35.2956,18.01375 -61.533,30.12352 -30.667,14.15411 -29.5608,13.54478 -33.5334,18.47335 -2.2492,2.79113 -5.5671,9.3599 -8.6211,17.0713 -2.7305,6.89392 -8.2155,19.9596 -12.1888,29.03496 -7.3385,16.76017 -8.3796,20.2978 -5.866,19.93189 0.7368,-0.10722 5.7251,-2.75963 11.0852,-5.89403 23.2894,-13.61864 55.1328,-24.65424 83.9402,-29.08986 19.7192,-3.03631 31.4526,-3.27452 58.8854,-1.19525 28.7196,2.17673 19.2557,3.91035 89.7134,-16.43391 85.7839,-24.76994 98.0858,-27.88986 129.0243,-32.72071 29.4319,-4.59544 38.1588,-5.28607 39.9434,-3.15946 1.1386,1.35711 -0.2808,1.84107 -10.7659,3.6705 -18.7987,3.27947 -84.3042,20.38257 -106.6865,27.85498 -30.1566,10.06786 -58.9923,18.21164 -78.37,22.13356 -19.9404,4.03569 -22.8247,5.31972 -35.1653,15.65357 -10.1085,8.4651 -11.0271,9.47869 -15.7763,17.41027 -2.7735,4.63222 -7.0492,12.83798 -9.5016,18.23516 -2.4522,5.39741 -6.5226,14.00439 -9.0451,19.1272 -3.4251,6.95663 -4.2832,9.67462 -3.39,10.73914 0.7272,0.8667 6.3095,1.42191 14.2428,1.41666 45.3323,-0.0299 68.2763,6.31653 106.2283,29.38336 27.9575,16.99238 40.3875,20.50601 68.3287,19.31444 51.0385,-2.17698 95.4555,-1.05491 148.6244,3.75401 18.4028,1.66463 35.0074,3.48999 36.8991,4.05667 3.6312,1.08807 6.8592,4.03504 5.5878,5.10151 -0.4143,0.34793 -6.0694,0.43464 -12.5664,0.19206 -21.7497,-0.81067 -54.4258,-1.98563 -64.1065,-2.30472 -5.2715,-0.17392 -15.0556,-0.53525 -21.7424,-0.80348 -50.7241,-2.03465 -77.5544,-1.97711 -97.0782,0.20812 -22.0233,2.46483 -23.9061,3.34408 -41.6445,19.44906 -27.306,24.79167 -49.8909,35.69737 -77.1967,37.27617 -18.2538,1.0556 -35.562,-2.4269 -61.2715,-12.3286 -18.0917,-6.96756 -29.9971,-10.72815 -31.0819,-9.81794 -1.6373,1.37384 0.5083,4.13163 6.6964,8.60633 10.1411,7.33351 25.6171,26.42891 33.4405,41.26081 12.7476,24.1678 16.2153,27.2241 46.2025,40.7216 34.1814,15.3852 67.4765,31.9726 92.8655,46.2658 16.8257,9.4723 25.6692,14.9521 25.5901,15.8565 -0.1479,1.692 -34.2899,-13.3508 -125.5966,-55.338 -9.9511,-4.576 -21.5327,-7.3072 -30.0812,-7.0933 -3.5752,0.089 -12.9967,1.8714 -20.9369,3.9601 -7.9402,2.0882 -16.4257,4.2271 -18.8568,4.7523 -21.9188,4.7345 -55.5107,2.8072 -79.3613,-4.5536 -4.4883,-1.3851 -8.3227,-2.7114 -8.5208,-2.9472 -0.1982,-0.2357 -2.8743,-1.2652 -5.9473,-2.2872 -3.6593,-1.2171 -6.1094,-1.4203 -7.0995,-0.5895 -1.9362,1.6248 -3.6034,15.704 -2.0751,17.5253 0.6367,0.7587 6.4106,4.1996 12.8306,7.6463 6.4201,3.4468 29.4947,15.9849 51.2765,27.8626 21.7819,11.8779 42.7626,23.202 46.6239,25.1649 8.2341,4.1864 12.9422,7.7467 11.6629,8.8201 -1.4043,1.1784 -10.4812,-2.1693 -21.9979,-8.1131 -5.9045,-3.0472 -17.2639,-7.9931 -25.2429,-10.9904 -18.7118,-7.0294 -38.0895,-16.2782 -69.2726,-33.0641 -13.8017,-7.4295 -26.3037,-13.8725 -27.7821,-14.318 -1.4782,-0.4453 -7.3872,-0.022 -13.1305,0.9412 -14.0984,2.3645 -23.3666,2.741 -36.385,1.4791 -12.9749,-1.258 -19.7254,-2.7094 -30.8866,-6.6417 -8.7075,-3.0677 -23.366,-10.2008 -29.8693,-14.5348 -5.209,-3.4716 -13.5713,-4.3667 -16.6515,-1.7819 -3.154,2.6466 -2.2685,4.5227 3.6577,7.7467 6.4655,3.5179 40.6509,23.2219 64.2926,37.0578 10.3334,6.0476 30.995,18.0823 45.9142,26.7438 14.9191,8.6614 34.521,20.1166 43.5595,25.4561 9.0386,5.339 25.5683,14.9162 36.7326,21.2823 11.6478,6.6418 20.2528,12.1019 20.1907,12.8114 -0.062,0.7098 -0.8049,1.1026 -1.7438,0.9215 -3.2496,-0.6252 -29.7435,-14.4554 -72.6906,-37.9451 -106.0328,-57.9946 -125.8409,-68.7333 -134.9015,-73.1352 -5.29,-2.5705 -11.2197,-5.6789 -13.1776,-6.9081 -7.9413,-4.9862 -11.3547,-4.3025 -19.9133,3.9893 -13.2609,12.847 -31.8202,17.5783 -54.0494,13.7779 -12.276,-2.0986 -30.8344,-7.1239 -53.3801,-14.4541 -10.2885,-3.3452 -19.9499,-6.2004 -21.47,-6.3447 -3.4968,-0.3318 -8.283,3.5299 -9.538,7.6952 l -0.9164,3.0425 6.2804,3.5233 c 3.4539,1.9379 18.0925,10.3535 32.53,18.7015 104.8475,60.6243 144.255,83.4481 163.9332,94.9457 12.4122,7.2523 26.3061,15.1327 30.8751,17.5126 8.7358,4.5501 12.9253,8.2541 11.0838,9.7994 -1.5723,1.3193 -11.0473,-3.1411 -37.8709,-17.8281 -29.7931,-16.3126 -44.498,-23.9209 -89.0158,-46.057 -50.7122,-25.216 -59.5021,-29.7194 -87.4172,-44.7877 -40.1055,-21.6485 -44.0109,-23.0786 -58.7436,-21.5102 -45.9165,4.8885 -89.921,-0.8341 -126.1841,-16.4096 -6.5551,-2.8155 -13.0185,-5.3708 -14.363,-5.6787 -2.1742,-0.498 -2.3814,-0.3752 -1.8755,1.1107 0.9149,2.6895 25.2437,28.0832 36.503,38.1017 11.6779,10.3907 16.8084,14.0188 35.1286,24.8403 7.0777,4.1808 18.9644,11.2982 26.4147,15.816 24.0736,14.599 34.16,20.2702 62.0844,34.9059 15.0873,7.908 37.9253,20.1722 50.7512,27.2542 12.8258,7.0819 29.4517,16.2365 36.9458,20.3432 16.6885,9.1455 20.7552,11.7727 21.0181,13.5797 0.6382,4.3838 -7.6861,0.2778 -129.2263,-63.7385 -32.3291,-17.028 -62.8705,-33.1086 -67.8694,-35.7347 -4.9992,-2.6261 -14.6217,-7.7053 -21.3834,-11.2871 -6.7616,-3.5818 -14.5158,-7.0016 -17.231,-7.5997 -7.8498,-1.7289 -15.2367,0.1901 -24.3972,6.3385 -10.8032,7.2502 -15.7827,9.7636 -23.2184,11.7194 -11.3906,2.9961 -33.4085,1.0765 -51.0288,-4.4479 -16.6598,-5.2232 -28.6387,-12.6807 -42.4045,-26.3985 -5.1824,-5.1647 -9.6856,-9.1696 -10.0069,-8.8998 -1.3657,1.1456 0.3508,6.4657 4.3277,13.4136 16.8113,29.3699 16.5532,28.971 20.1193,31.0627 4.322,2.5349 15.9512,6.6051 124.2883,43.5014 53.162,18.1053 51.9802,17.7194 73.1824,23.8953 20.8607,6.0761 31.3768,9.7719 30.3231,10.6561 -0.7562,0.6344 -0.6073,0.654 -18.8568,-2.4532 -17.5211,-2.983 -28.7342,-5.7065 -54.2918,-13.187 -12.3703,-3.6205 -39.2589,-10.5352 -59.7526,-15.3659 -47.4488,-11.1846 -54.5154,-13.0898 -74.5534,-20.1016 -39.6607,-13.8788 -39.6219,-13.8625 -43.9591,-18.5375 -5.1821,-5.5859 -7.0608,-6.2496 -13.1393,-4.641 -6.859,1.8151 -21.9402,2.7265 -32.5419,1.9656 -10.8929,-0.7812 -20.763,-2.7215 -34.4082,-6.7629 -10.5902,-3.1371 -14.3184,-3.0347 -14.9449,0.4096 -0.5462,3.0029 2.4695,5.5745 9.9355,8.4727 23.0323,8.9411 121.9513,42.5767 151.2103,51.4163 12.5825,3.8016 27.6621,8.9326 33.5102,11.4029 15.5849,6.5827 16.4943,8.7531 2.8227,6.7368 -18.359,-2.708 -116.0418,-33.0805 -184.7391,-57.4409 -16.1678,-5.7332 -20.9024,-6.926 -30.5106,-7.6863 -6.2552,-0.4952 -13.5369,-0.3594 -16.1816,0.3016 -2.6447,0.661 -9.4165,2.4162 -15.0484,3.9006 -7.8322,2.0645 -12.6951,2.5682 -20.6812,2.1439 -22.1974,-1.1797 -38.077,-8.575 -77.7935,-36.2285 -42.2646,-29.4279 -50.9882,-35.2451 -53.9016,-35.9438 -3.9932,-0.9575 -9.7517,-0.356 -15.021,1.5691 -2.3035,0.8416 -15.9361,5.7316 -30.2947,10.8666 -83.9573,30.0253 -93.9067,34.3303 -162.328,70.24 z m 255.7602,-105.0673 c 13.6101,-3.7372 30.3306,-9.3525 35.5407,-11.9358 8.494,-4.2116 21.2389,-14.9123 26.3088,-22.0887 13.8698,-19.6341 15.5516,-33.7531 9.8691,-82.86203 -1.4387,-12.43436 -2.5923,-24.55704 -2.5635,-26.93967 0.029,-2.38245 -0.5561,-5.05673 -1.2996,-5.94272 -1.2526,-1.493 -1.6167,-1.32919 -4.9745,2.23912 -4.9826,5.29504 -21.1077,27.92266 -27.7271,38.90827 -12.9241,21.44883 -25.0137,45.18253 -31.6861,62.20383 -2.7813,7.0953 -4.0753,13.3464 -5.6602,27.344 -1.1301,9.9805 -1.7554,18.5351 -1.3898,19.0106 0.3656,0.4753 1.9778,0.5039 3.5825,0.063 z m 31.5553,35.6063 c 24.8066,23.5839 40.2258,35.797 51.0613,40.4444 13.3696,5.7346 29.3107,4.1124 45.5185,-4.6317 11.7556,-6.3421 18.0481,-11.6905 18.393,-15.6333 0.243,-2.7777 -0.2284,-3.5284 -6.0438,-9.6146 -6.7727,-7.089 -30.7909,-24.9761 -41.9095,-31.2118 -10.3707,-5.8162 -21.7638,-9.4227 -31.1714,-9.8673 -2.6997,-0.1276 -9.1931,0.2622 -14.4302,0.8662 -11.2461,1.297 -38.6284,6.8854 -40.2002,8.2044 -1.5368,1.2894 2.8457,6.2928 18.7823,21.4437 z m -42.554,-79.8493 c 0.8441,-1.3357 6.1907,-10.5311 11.8815,-20.4344 5.6908,-9.9032 10.9732,-19.0096 11.7386,-20.2364 0.7654,-1.227 5.6582,-9.7472 10.8734,-18.93407 11.26,-19.83618 20.1387,-34.37369 27.7434,-45.42577 5.5497,-8.06579 6.744,-10.70632 5.508,-12.17907 -0.8221,-0.98002 -17.2781,14.2476 -26.8213,24.81952 -24.0491,26.64137 -40.7345,56.87939 -44.0886,79.89909 -1.0995,7.547 -0.7412,14.136 0.7969,14.644 0.4584,0.1516 1.5241,-0.8173 2.3681,-2.1529 z m 101.0494,15.4356 c 8.5187,-2.1337 31.4345,-9.1366 34.5683,-10.5638 5.4251,-2.4704 24.8477,-19.0783 32.6669,-27.9326 15.1335,-17.1367 19.355,-25.2493 31.5216,-60.57674 5.2055,-15.11488 11.1877,-32.0785 13.2941,-37.69713 5.2753,-14.0722 7.4646,-21.86581 10.4776,-37.29617 3.6106,-18.48903 4.2716,-25.69145 2.9071,-31.66781 -1.4793,-6.47743 -3.6231,-9.15552 -6.7969,-8.48992 -3.6658,0.76879 -27.8563,20.25335 -37.6625,30.33585 -16.8977,17.37341 -33.3361,38.89911 -55.6564,72.88097 -16.8398,25.63789 -21.4884,36.36946 -23.4946,54.23925 -1.1339,10.1006 -0.7217,16.1607 1.8035,26.5196 2.071,8.4947 1.2441,16.119 -2.3391,21.5694 -5.4681,8.3178 -5.6854,9.7801 -1.2896,8.6791 z m 85.8255,79.3083 c 20.9883,18.1045 44.4641,21.8477 84.6778,13.5022 11.0433,-2.2919 14.2891,-4.5511 13.9824,-9.7329 -0.1933,-3.2654 -16.94,-35.4872 -25.2091,-48.5046 -8.0382,-12.6532 -26.7002,-26.7179 -44.3313,-33.4099 -16.9828,-6.4459 -38.0238,-7.8734 -58.2137,-3.9496 -12.8294,2.4933 -18.1176,4.8525 -19.9034,8.8806 -3.15,7.1038 -0.9022,11.4471 19.737,38.1385 18.6365,24.1012 24.0219,30.5568 29.2603,35.0757 z m -10.4778,-105.9214 c 5.6235,-2.396 15.9408,-12.1904 21.7431,-20.6409 9.1733,-13.3601 18.1532,-38.3555 18.1699,-50.57572 0.012,-8.57313 -2.0771,-6.70759 -5.7782,5.16007 -5.9772,19.16545 -15.3693,35.55805 -32.1438,56.10205 -8.3157,10.1842 -8.4614,10.4057 -7.3151,11.1098 0.5884,0.3615 2.9843,-0.1584 5.3241,-1.1553 z m -48.1916,-102.85232 c 1.9618,-3.33437 38.4794,-49.30491 40.539,-51.03317 0.7333,-0.61526 1.9939,-2.30186 2.8015,-3.74798 1.3709,-2.45449 1.3249,-2.60214 -0.6887,-2.21918 -3.1804,0.60475 -20.363,16.79091 -26.6732,25.12616 -6.1387,8.10874 -11.3962,16.97321 -16.5644,27.92834 -3.5119,7.44437 -3.101,10.21172 0.5858,3.94583 z m 86.8335,94.23702 c 7.7666,-0.554 37.8498,-7.8579 47.8305,-11.6126 21.8062,-8.2036 37.6889,-17.8343 55.0956,-33.40823 29.9253,-26.77433 45.1389,-54.00738 49.2818,-88.21543 0.7768,-6.41388 1.5816,-20.11238 1.7886,-30.44103 0.2072,-10.32867 0.5795,-20.37397 0.8278,-22.32283 0.658,-5.16257 -1.6185,-7.37349 -5.4003,-5.24479 -1.653,0.93042 -8.2858,4.05203 -14.7396,6.93682 -7.2535,3.24236 -14.3541,7.17245 -18.5951,10.29237 -16.4433,12.09635 -80.9256,84.43836 -96.0662,107.77568 -6.0144,9.27061 -10.5096,21.2857 -11.3994,30.46909 -0.9994,10.31605 -1.8486,12.34735 -9.1019,21.77505 -8.1023,10.5307 -8.0386,10.4038 -6.2734,12.5077 1.0939,1.3036 3.1103,1.748 6.7516,1.4882 z m 100.8092,103.3363 c 14.0002,12.2752 24.0767,17.7715 33.1914,18.1053 7.0059,0.2563 15.4127,-2.0383 35.2581,-9.624 8.9695,-3.4288 18.9624,-7.058 22.2062,-8.0655 3.2438,-1.0072 6.2319,-2.4339 6.6403,-3.1704 0.5776,-1.0421 -1.3784,-4.1078 -8.8091,-13.8079 -21.4275,-27.9724 -49.3686,-49.8618 -81.5659,-63.8992 -14.8554,-6.477 -27.6115,-9.906 -44.1719,-11.8746 -7.0444,-0.8373 -13.3571,-2.0671 -14.0283,-2.7328 -0.671,-0.6659 -2.3499,-2.4915 -3.7308,-4.057 l -2.5103,-2.847 -10.441,2.7377 c -5.7425,1.5059 -10.4716,3.0872 -10.509,3.5143 -0.037,0.4269 2.188,2.3243 4.9454,4.2161 2.7571,1.8919 8.6688,7.4215 13.1372,12.2877 7.9208,8.6266 8.9631,10.1206 32.1676,46.111 3.6289,5.6288 23.5919,29.0476 28.2205,33.1055 z m -0.7556,-95.1495 c 7.6511,3.7549 34.9129,18.8505 48.5804,26.9006 12.9613,7.6342 15.8839,7.8484 8.476,0.6215 -7.8812,-7.6887 -19.8268,-18.1309 -25.1535,-21.9875 -11.7084,-8.4773 -36.1367,-16.014 -38.4401,-11.8595 -1.1613,2.0946 -0.2129,3.0125 6.5372,6.3249 z m 63.7162,16.37 c 6.8447,5.4725 17.3741,13.3598 23.3987,17.5272 27.2371,18.8413 53.0494,27.1279 96.6245,31.0199 27.9798,2.4991 43.682,0.6206 58.2997,-6.975 8.1559,-4.2379 11.1785,-7.784 10.8806,-12.7657 -0.3826,-6.4036 -18.1522,-28.8578 -28.7475,-36.3266 -2.325,-1.6392 -10.9765,-5.8382 -19.2255,-9.3319 -8.2492,-3.4934 -20.8938,-9.0377 -28.0992,-12.3209 -23.1868,-10.5646 -46.0856,-16.3283 -74.8631,-18.8429 -8.96,-0.783 -20.7903,-1.185 -26.2894,-0.8933 -11.3461,0.6017 -39.0996,3.4278 -41.6744,4.244 -2.8215,0.8941 -2.8561,4.2875 -0.1172,11.522 2.2935,6.0586 3.4681,7.8266 9.9837,15.0296 4.5639,5.0457 12.1372,11.9635 19.8291,18.1136 z m -10.9863,-60.35838 c 4.9968,-1.0893 24.8279,-5.62182 44.0688,-10.07206 49.7716,-11.51173 67.275,-17.84621 81.6088,-29.53388 11.9852,-9.77265 18.4262,-20.44486 21.0256,-34.83803 0.7633,-4.22466 4.4993,-20.42421 8.3028,-35.99919 8.328,-34.10252 13.0723,-57.5219 12.8071,-63.218 -0.2564,-5.50943 -2.5751,-8.19283 -6.9591,-8.05427 -7.8576,0.24852 -41.7466,10.81109 -55.7697,17.38234 -47.0723,22.05814 -78.9509,56.24688 -101.2752,108.61479 -5.5015,12.90519 -14.7365,40.61855 -15.5412,46.63736 -0.565,4.22679 0.2762,9.76161 1.5935,10.4841 0.5791,0.31778 5.1414,-0.31361 10.1386,-1.40316 z m 83.638,5.11188 c 3.8254,1.0978 16.3756,5.2528 27.8894,9.2331 25.1217,8.6846 25.984,8.919 25.2707,6.8614 -0.8312,-2.3976 -22.4799,-17.6891 -29.696,-20.97565 -11.562,-5.26608 -24.2168,-5.58327 -29.9754,-0.75133 -2.775,2.32861 -1.6701,3.28464 6.5113,5.63248 z m -65.8852,-116.94262 c 3.3887,-4.54622 9.0367,-18.63232 10.4159,-25.97718 0.7784,-4.14399 1.4379,-13.13424 1.4656,-19.97835 l 0.051,-12.44382 -2.7701,1.9026 c -3.6081,2.47822 -8.2928,10.88617 -10.067,18.0678 -0.7745,3.13437 -1.3704,10.47484 -1.3247,16.31218 0.046,5.83743 -0.086,13.38616 -0.2943,16.77509 -0.44,7.17356 0.1803,8.48605 2.5239,5.34168 z m 178.7261,163.47962 c 12.9143,11.8601 31.1291,26.1465 41.7567,32.7525 24.3221,15.1172 53.2953,21.8828 72.9298,17.0304 9.8133,-2.4251 18.6936,-6.7613 37.475,-18.3003 20.582,-12.6455 18.8773,-10.9162 15.6989,-15.9229 -4.0657,-6.4038 -16.3113,-18.0478 -27.0442,-25.7153 -14.2649,-10.191 -29.9828,-18.7412 -52.7766,-28.7103 -28.4323,-12.43519 -54.6016,-20.60635 -81.2991,-25.3854 -17.0624,-3.05424 -48.1274,-5.03866 -50.3029,-3.21329 -4.1375,3.47182 -0.816,14.01663 9.1061,28.91039 5.6504,8.4811 23.692,28.6686 34.4563,38.5542 z m -42.2468,-82.50554 c 19.8092,-3.02043 59.8817,-7.57156 74.1953,-8.42664 22.0716,-1.31852 36.3762,-6.61258 53.3508,-19.74474 19.3033,-14.93405 35.1722,-33.25373 41.4463,-47.84796 1.6854,-3.92093 3.5896,-10.75048 4.2313,-15.17673 0.6416,-4.42631 1.8628,-9.27165 2.7138,-10.76752 0.8507,-1.49569 2.7571,-4.77778 4.2362,-7.29317 1.9173,-3.26052 2.9072,-7.22386 3.4485,-13.8044 0.9049,-11.00543 -0.1274,-17.23299 -3.0097,-18.156 -1.0712,-0.34303 -8.6848,1.47226 -16.9193,4.03388 -8.2344,2.56149 -20.1286,5.81458 -26.4315,7.22902 -28.9568,6.49811 -34.7386,8.13322 -43.1845,12.21267 -29.2153,14.11152 -57.0455,42.43807 -83.1972,84.68032 -10.8556,17.53502 -16.5484,29.80625 -14.7965,31.89421 0.722,0.86017 2.4842,1.38538 3.9165,1.16706 z M 2819.2731,772.40212 c 0.5658,-0.0824 7.2445,-4.19919 14.8417,-9.14856 7.597,-4.94925 16.4885,-10.5805 19.7589,-12.51368 3.2703,-1.93319 5.984,-3.9487 6.0303,-4.47879 0.1654,-1.89021 -4.3044,-0.6236 -9.0258,2.55788 -2.6393,1.77839 -11.3174,6.9336 -19.2847,11.45619 -7.9674,4.52245 -14.6301,8.65851 -14.8061,9.19113 -0.4161,1.25943 1.1661,3.12782 2.4857,2.93583 z m 245.4898,207.03644 c 3.9864,1.44733 19.5707,7.71126 34.6327,13.91958 24.3899,10.05306 30.4165,12.04686 28.1104,9.29816 -4.4656,-5.32181 -19.3374,-16.31985 -28.8458,-21.33132 -10.0858,-5.31609 -37.4747,-10.40559 -40.8329,-7.58755 -2.3153,1.94263 -1.4454,2.6578 6.9356,5.70113 z m 133.4505,70.92364 c 15.373,13.748 34.3639,26.6499 47.7669,32.4521 14.2666,6.1757 28.135,7.9791 56.6424,7.3655 21.3761,-0.4602 23.2282,-0.6295 25.227,-2.3065 2.3823,-1.999 1.2706,-6.0785 -4.6947,-17.2276 -4.155,-7.7657 -7.3789,-12.2021 -19.9095,-27.3973 -8.2235,-9.9722 -19.6322,-24.2512 -25.3526,-31.7308 -10.9643,-14.33658 -15.1847,-18.48202 -27.1632,-26.67781 -25.1784,-17.22821 -57.625,-25.86772 -91.159,-24.27235 -6.9855,0.33214 -15.0111,0.60173 -17.8353,0.59864 -5.1119,-0.005 -8.7611,1.78654 -8.4193,4.1341 0.2276,1.56911 17.9315,29.49563 25.8966,40.85192 8.0324,11.4519 29.194,35.4404 39.0007,44.2105 z m -32.4903,-104.06847 c 11.6964,-0.60232 27.2127,-1.761 34.4802,-2.57479 17.4263,-1.95156 38.5523,-6.8236 43.3272,-9.9924 3.4573,-2.29433 11.0264,-10.25546 35.9288,-37.78831 13.425,-14.84339 14.6309,-16.68167 17.321,-26.40427 2.4441,-8.83449 12.0844,-55.13798 11.9382,-57.34276 -0.1579,-2.37883 -7.2142,-1.16741 -25.3829,4.3578 -46.2097,14.05215 -74.1338,30.40749 -100.2161,58.69754 -13.3392,14.46844 -24.142,31.64551 -34.8518,55.41636 -5.0576,11.22526 -6.2237,14.74591 -5.1708,15.60999 0.7482,0.6134 10.9297,0.62303 22.6262,0.0208 z m 153.3543,80.78407 c 16.3262,15.6574 36.6119,29.7447 52.9559,36.7748 23.7507,10.2158 47.2003,13.1555 77.5219,9.7184 16.346,-1.8531 28.0077,-4.279 30.4597,-6.3364 0.9946,-0.8345 2.0512,-3.0426 2.3476,-4.907 0.4822,-3.0331 -0.3918,-4.9832 -8.3189,-18.5575 -10.7369,-18.3852 -18.8442,-28.4256 -31.8803,-39.4801 -21.2254,-17.99971 -46.6631,-29.73955 -75.8473,-35.00432 -13.9201,-2.51094 -37.4537,-3.85134 -54.1291,-3.08249 -7.8841,0.36346 -16.8941,0.72076 -20.0227,0.79446 -8.1491,0.19099 -8.9607,1.65922 -5.7912,10.4785 6.8731,19.12274 17.1048,34.64075 32.7044,49.60165 z m -31.2621,-86.30373 c 14.3222,-1.66548 25.9015,-1.78572 45.6994,-0.47495 39.2724,2.6002 57.0402,0.21725 79.6125,-10.67828 22.6541,-10.9347 43.4975,-36.66966 62.9403,-77.71125 3.5205,-7.43117 7.0422,-14.49692 7.8264,-15.70166 3.8636,-5.93591 2.3964,-7.30435 -9.4801,-8.84306 -51.1317,-6.62455 -102.8774,9.55154 -146.2504,45.71903 -19.2533,16.05488 -30.2212,28.68792 -43.8119,50.46493 -7.5449,12.08952 -9.1009,15.60112 -7.6694,17.30713 0.5098,0.60767 5.52,0.57088 11.1332,-0.0819 z m 31.6082,-95.16357 c 0.4064,-0.34088 2.0509,-4.50684 3.6544,-9.25751 1.6035,-4.75077 4.7208,-13.09388 6.9274,-18.54052 4.8802,-12.04652 4.6093,-14.27739 -1.0533,-8.66614 -5.6802,5.6292 -9.784,15.65065 -10.8376,26.46566 -0.8146,8.36186 -0.4112,11.44207 1.3091,9.99851 z m 118.3703,124.50735 c 25.27,13.63005 42.8699,19.49333 62.5172,20.82803 11.6743,0.79293 50.0954,-3.21172 65.2878,-6.8049 17.76,-4.20057 30.1248,-10.10992 42.0476,-20.09546 4.3431,-3.63104 6.2281,-5.75772 6.2212,-6.99513 -0.01,-1.35603 -2.4601,-3.41689 -10.3568,-8.70345 -23.1519,-15.49643 -39.0461,-21.06881 -59.7333,-20.94127 -5.1775,0.032 -19.7261,-0.63962 -32.3304,-1.49185 -12.6045,-0.85241 -26.3011,-1.40663 -30.4368,-1.23181 -21.3332,0.90238 -35.8318,5.80034 -51.7911,17.49531 -7.9579,5.83187 -10.894,10.00626 -9.9705,14.17573 0.829,3.74249 3.1266,5.44722 18.5457,13.76415 z m 34.0691,-54.03141 c 3.6295,-0.2816 40.4654,1.09055 56.6437,2.10999 16.2622,1.02467 17.1012,-0.57971 2.639,-5.04622 -10.9074,-3.36884 -23.1162,-5.13694 -32.6507,-4.7287 -9.1716,0.39278 -28.3301,3.90265 -30.2932,5.54954 -1.8533,1.55506 -0.3455,2.4261 3.6612,2.11539 z"
       id="path1"
       sodipodi:nodetypes="cssssssssssssscsssssssssssssssssssssccssssssssssssssssssssssssssssscssssscssssssscssssssssscsssssssssscsssscssssssscssssssssssssscssssssssssssscssssssssssssssssssscsssssssssssssssssssssssssssssssssssssssssssssssssscsssscccscssssssscccssssssssssssssssssssssssssssssssssssssssssssssssssssssssssssssssssssssscsssscsssccsssssccssssssscssssscssssssssssssssssssssssssssscsssssssssssssssscsssssssssscsscssscsssssssssssssssssssssssssssssscsssssssssssssssssssscscssssscsssssscsssscsssssssss" />
  </g>
</svg>
